<?xml version="1.0" encoding="UTF-8" standalone="no"?>
<!-- Created with Inkscape (http://www.inkscape.org/) -->

<svg
   xmlns:dc="http://purl.org/dc/elements/1.1/"
   xmlns:cc="http://creativecommons.org/ns#"
   xmlns:rdf="http://www.w3.org/1999/02/22-rdf-syntax-ns#"
   xmlns:svg="http://www.w3.org/2000/svg"
   xmlns="http://www.w3.org/2000/svg"
   xmlns:sodipodi="http://sodipodi.sourceforge.net/DTD/sodipodi-0.dtd"
   xmlns:inkscape="http://www.inkscape.org/namespaces/inkscape"
   width="210mm"
   height="297mm"
   viewBox="0 0 744.09448819 1052.3622047"
   id="svg2"
   version="1.1"
   inkscape:version="0.91 r13725"
   sodipodi:docname="drawing.svg">
  <defs
     id="defs4" />
  <sodipodi:namedview
     id="base"
     pagecolor="#ffffff"
     bordercolor="#666666"
     borderopacity="1.0"
     inkscape:pageopacity="0.0"
     inkscape:pageshadow="2"
     inkscape:zoom="5.6"
     inkscape:cx="296.9743"
     inkscape:cy="796.9373"
     inkscape:document-units="px"
     inkscape:current-layer="layer1"
     showgrid="false"
     inkscape:snap-smooth-nodes="false"
     inkscape:object-nodes="true"
     inkscape:snap-intersection-paths="false"
     inkscape:snap-others="false"
     showguides="false"
     inkscape:window-width="1920"
     inkscape:window-height="1018"
     inkscape:window-x="-8"
     inkscape:window-y="-8"
     inkscape:window-maximized="1" />
  <metadata
     id="metadata7">
    <rdf:RDF>
      <cc:Work
         rdf:about="">
        <dc:format>image/svg+xml</dc:format>
        <dc:type
           rdf:resource="http://purl.org/dc/dcmitype/StillImage" />
        <dc:title></dc:title>
      </cc:Work>
    </rdf:RDF>
  </metadata>
  <g
     inkscape:label="Layer 1"
     inkscape:groupmode="layer"
     id="layer1">
    <path
       style="fill:none;fill-rule:evenodd;stroke:#000000;stroke-width:1.00516677px;stroke-linecap:round;stroke-linejoin:round;stroke-opacity:1"
       d="m 159.09521,93.85705 0.19143,7.95282 -29.60589,16.9155 -0.0638,-8.14216 z"
       id="path4245"
       inkscape:connector-curvature="0" />
    <path
       style="color:#000000;font-style:normal;font-variant:normal;font-weight:normal;font-stretch:normal;font-size:medium;line-height:normal;font-family:sans-serif;text-indent:0;text-align:start;text-decoration:none;text-decoration-line:none;text-decoration-style:solid;text-decoration-color:#000000;letter-spacing:normal;word-spacing:normal;text-transform:none;direction:ltr;block-progression:tb;writing-mode:lr-tb;baseline-shift:baseline;text-anchor:start;white-space:normal;clip-rule:nonzero;display:inline;overflow:visible;visibility:visible;opacity:1;isolation:auto;mix-blend-mode:normal;color-interpolation:sRGB;color-interpolation-filters:linearRGB;solid-color:#000000;solid-opacity:1;fill:#000000;fill-opacity:1;fill-rule:nonzero;stroke:none;stroke-width:1;stroke-linecap:round;stroke-linejoin:round;stroke-miterlimit:4;stroke-dasharray:none;stroke-dashoffset:0;stroke-opacity:1;color-rendering:auto;image-rendering:auto;shape-rendering:auto;text-rendering:auto;enable-background:accumulate"
       d="m 155.96875,97.390625 -23.51563,13.576175 0.75,0.43359 22.76563,13.14453 23.51563,-13.57812 -23.51563,-13.576175 z m 0,1.154295 21.51563,12.42383 -21.51563,12.42187 -21.51563,-12.42187 21.51563,-12.42383 z"
       id="path2-8"
       inkscape:connector-curvature="0" />
    <path
       inkscape:connector-curvature="0"
       id="path4235"
       d="m 98.21875,62.341796 -23.515625,13.578125 15.220703,8.787109 0,4 0.25,0.144531 39.220702,22.644529 30.44336,-17.57617 -39.83594,-22.999999 -6.92773,0 -14.85547,-8.578125 z m 0,1.154297 14.58789,8.423828 6.92774,0 38.10351,21.999999 -28.44336,16.42188 -38.470702,-22.210942 0,-4 L 76.703125,75.919921 98.21875,63.496093 Z"
       style="color:#000000;font-style:normal;font-variant:normal;font-weight:normal;font-stretch:normal;font-size:medium;line-height:normal;font-family:sans-serif;text-indent:0;text-align:start;text-decoration:none;text-decoration-line:none;text-decoration-style:solid;text-decoration-color:#000000;letter-spacing:normal;word-spacing:normal;text-transform:none;direction:ltr;block-progression:tb;writing-mode:lr-tb;baseline-shift:baseline;text-anchor:start;white-space:normal;clip-rule:nonzero;display:inline;overflow:visible;visibility:visible;opacity:1;isolation:auto;mix-blend-mode:normal;color-interpolation:sRGB;color-interpolation-filters:linearRGB;solid-color:#000000;solid-opacity:1;fill:#000000;fill-opacity:1;fill-rule:nonzero;stroke:none;stroke-width:1;stroke-linecap:round;stroke-linejoin:round;stroke-miterlimit:4;stroke-dasharray:none;stroke-dashoffset:0;stroke-opacity:1;color-rendering:auto;image-rendering:auto;shape-rendering:auto;text-rendering:auto;enable-background:accumulate" />
    <path
       style="fill:none;fill-rule:evenodd;stroke:#000000;stroke-width:1px;stroke-linecap:round;stroke-linejoin:round;stroke-opacity:1"
       d="m 75.692972,76.17246 0.12627,7.74746 14.230855,8.28203 c 0,-2.66666 0.126269,-8.94681 0.126269,-7.62119 z"
       id="path4237"
       inkscape:connector-curvature="0"
       sodipodi:nodetypes="ccccc" />
    <path
       style="fill:none;fill-rule:evenodd;stroke:#000000;stroke-width:0.99277318px;stroke-linecap:round;stroke-linejoin:round;stroke-opacity:1"
       d="m 129.11048,110.89274 -38.667625,-22.55442 0.265453,8.25811 38.313702,22.02164 z"
       id="path4241"
       inkscape:connector-curvature="0" />
    <path
       style="fill:none;fill-rule:evenodd;stroke:#000000;stroke-width:0.99924642px;stroke-linecap:round;stroke-linejoin:round;stroke-opacity:1"
       d="m 156.509,129.69252 -0.24967,-5.9937 22.22095,-12.94382 -0.24967,5.67487 z"
       id="path4251"
       inkscape:connector-curvature="0" />
    <path
       style="fill:none;fill-rule:evenodd;stroke:#000000;stroke-width:1.00516677px;stroke-linecap:butt;stroke-linejoin:miter;stroke-opacity:1"
       d="m 291.10559,70.172354 0.19143,7.95282 -29.60589,16.9155 -0.0638,-8.14216 z"
       id="path4245-8"
       inkscape:connector-curvature="0" />
    <path
       style="color:#000000;font-style:normal;font-variant:normal;font-weight:normal;font-stretch:normal;font-size:medium;line-height:normal;font-family:sans-serif;text-indent:0;text-align:start;text-decoration:none;text-decoration-line:none;text-decoration-style:solid;text-decoration-color:#000000;letter-spacing:normal;word-spacing:normal;text-transform:none;direction:ltr;block-progression:tb;writing-mode:lr-tb;baseline-shift:baseline;text-anchor:start;white-space:normal;clip-rule:nonzero;display:inline;overflow:visible;visibility:visible;opacity:1;isolation:auto;mix-blend-mode:normal;color-interpolation:sRGB;color-interpolation-filters:linearRGB;solid-color:#000000;solid-opacity:1;fill:#000000;fill-opacity:1;fill-rule:nonzero;stroke:none;stroke-width:1;stroke-linecap:butt;stroke-linejoin:miter;stroke-miterlimit:4;stroke-dasharray:none;stroke-dashoffset:0;stroke-opacity:1;color-rendering:auto;image-rendering:auto;shape-rendering:auto;text-rendering:auto;enable-background:accumulate"
       d="m 287.97913,73.705924 -23.51563,13.57618 0.75,0.43359 22.76563,13.144526 23.51562,-13.578116 -23.51562,-13.57618 z m 0,1.1543 21.51562,12.42383 -21.51562,12.42187 -21.51563,-12.42187 21.51563,-12.42383 z"
       id="path2-8-7"
       inkscape:connector-curvature="0" />
    <path
       inkscape:connector-curvature="0"
       id="path4235-2"
       d="m 230.22913,38.657104 -23.51563,13.57812 15.2207,8.78711 0,4 0.25,0.14453 39.22071,22.64453 30.44336,-17.57617 -39.83594,-23 -6.92773,0 -14.85547,-8.57812 z m 0,1.15429 14.58789,8.42383 6.92774,0 38.10351,22 -28.44336,16.42188 -38.47071,-22.21094 0,-4 -14.2207,-8.21094 21.51563,-12.42383 z"
       style="color:#000000;font-style:normal;font-variant:normal;font-weight:normal;font-stretch:normal;font-size:medium;line-height:normal;font-family:sans-serif;text-indent:0;text-align:start;text-decoration:none;text-decoration-line:none;text-decoration-style:solid;text-decoration-color:#000000;letter-spacing:normal;word-spacing:normal;text-transform:none;direction:ltr;block-progression:tb;writing-mode:lr-tb;baseline-shift:baseline;text-anchor:start;white-space:normal;clip-rule:nonzero;display:inline;overflow:visible;visibility:visible;opacity:1;isolation:auto;mix-blend-mode:normal;color-interpolation:sRGB;color-interpolation-filters:linearRGB;solid-color:#000000;solid-opacity:1;fill:#000000;fill-opacity:1;fill-rule:nonzero;stroke:none;stroke-width:1;stroke-linecap:butt;stroke-linejoin:miter;stroke-miterlimit:4;stroke-dasharray:none;stroke-dashoffset:0;stroke-opacity:1;color-rendering:auto;image-rendering:auto;shape-rendering:auto;text-rendering:auto;enable-background:accumulate" />
    <path
       style="fill:none;fill-rule:evenodd;stroke:#000000;stroke-width:1px;stroke-linecap:butt;stroke-linejoin:miter;stroke-opacity:1"
       d="m 207.70335,52.487764 0.12627,7.74746 14.23085,8.28203 c 0,-2.66666 0.12627,-8.94681 0.12627,-7.62119 z"
       id="path4237-6"
       inkscape:connector-curvature="0"
       sodipodi:nodetypes="ccccc" />
    <path
       style="fill:none;fill-rule:evenodd;stroke:#000000;stroke-width:0.99277318px;stroke-linecap:butt;stroke-linejoin:miter;stroke-opacity:1"
       d="m 261.12086,87.208044 -38.66763,-22.55442 0.26545,8.25811 38.31371,22.02164 z"
       id="path4241-8"
       inkscape:connector-curvature="0" />
    <path
       style="fill:none;fill-rule:evenodd;stroke:#000000;stroke-width:0.99924642px;stroke-linecap:butt;stroke-linejoin:miter;stroke-opacity:1"
       d="m 288.51938,106.00782 -0.24967,-5.9937 22.22094,-12.943816 -0.24967,5.67487 z"
       id="path4251-0"
       inkscape:connector-curvature="0" />
    <path
       style="fill:none;fill-rule:evenodd;stroke:#000000;stroke-width:1px;stroke-linecap:butt;stroke-linejoin:miter;stroke-opacity:1"
       d="m 288.33149,105.75658 -22.60217,-12.626906 -0.25253,-6.06091 22.60216,13.131976 z"
       id="path4293-9"
       inkscape:connector-curvature="0" />
    <path
       style="opacity:1;fill:#ffffff;fill-opacity:1;fill-rule:evenodd;stroke:#000000;stroke-width:0.12626907;stroke-miterlimit:4;stroke-dasharray:none;stroke-opacity:1"
       d="m 288.94049,102.75746 c -0.0512,-1.26165 -0.0434,-2.31694 0.0174,-2.37098 0.16662,-0.14799 20.74831,-12.003826 20.83859,-12.003826 0.10519,0 -0.077,3.95391 -0.18717,4.06213 -0.07,0.0687 -10.99964,6.75718 -18.85456,11.538116 l -1.72205,1.04814 -0.0922,-2.27358 z"
       id="path4321-7"
       inkscape:connector-curvature="0" />
    <path
       style="opacity:1;fill:#ffffff;fill-opacity:1;fill-rule:evenodd;stroke:#000000;stroke-width:0.12626907;stroke-miterlimit:4;stroke-dasharray:none;stroke-opacity:1"
       d="m 248.90569,79.376454 c -6.74102,-3.90121 -15.33403,-8.88297 -19.09557,-11.07058 l -6.83917,-3.97748 -0.003,-1.97001 -0.003,-1.97 -7.00233,-4.02778 c -3.85128,-2.21527 -7.00485,-4.06406 -7.00793,-4.10842 -0.007,-0.0981 21.02483,-12.25285 21.24278,-12.27679 0.0848,-0.009 3.42779,1.87237 7.42882,4.18152 l 7.27459,4.19844 3.46229,0 3.46229,0 18.79661,10.85198 c 10.33813,5.96859 18.84766,10.90304 18.91006,10.96544 0.0671,0.0671 -1.91392,1.27848 -4.84789,2.96447 -5.27239,3.02976 -23.4652,13.35789 -23.5014,13.34185 -0.0118,-0.005 -5.53687,-3.20143 -12.2779,-7.10264 z"
       id="path4323-7"
       inkscape:connector-curvature="0" />
    <path
       style="opacity:1;fill:#ffffff;fill-opacity:1;fill-rule:evenodd;stroke:#000000;stroke-width:0.12626907;stroke-miterlimit:4;stroke-dasharray:none;stroke-opacity:1"
       d="m 241.82391,83.246114 -18.5755,-10.67641 -0.0927,-3.33802 c -0.051,-1.83592 -0.0718,-3.35893 -0.0463,-3.38448 0.0598,-0.0598 9.04126,5.12224 24.89867,14.36599 l 12.60491,7.34776 -0.0888,3.1572 c -0.0488,1.73646 -0.0969,3.16782 -0.10681,3.18079 -0.01,0.013 -8.37699,-4.78081 -18.59351,-10.65283 z"
       id="path4325-4"
       inkscape:connector-curvature="0" />
    <path
       style="opacity:1;fill:#ffffff;fill-opacity:1;fill-rule:evenodd;stroke:#000000;stroke-width:0.12626907;stroke-miterlimit:4;stroke-dasharray:none;stroke-opacity:1"
       d="m 262.23539,90.746364 0,-3.34239 10.5119,-6.06271 c 13.88484,-8.00806 17.6681,-10.15129 17.75888,-10.06052 0.0881,0.0881 0.19511,3.84366 0.10948,3.84366 -0.0318,0 -0.6419,-0.33746 -1.35579,-0.74991 -1.17262,-0.67747 -1.32387,-0.73358 -1.56589,-0.58085 -0.34226,0.21597 -21.3858,12.3537 -21.76407,12.55331 -0.22672,0.11964 -0.35849,0.11027 -0.66292,-0.0472 l -0.37994,-0.19648 0,0.44074 c 0,0.30755 -0.0743,0.48051 -0.24591,0.57235 -0.23849,0.12763 -0.23658,0.14092 0.0631,0.44064 0.28153,0.28154 0.30904,0.40898 0.30904,1.43181 0,0.61752 0.0364,1.6357 0.0809,2.26263 l 0.0809,1.13986 -0.93323,0.53963 c -0.51327,0.29679 -1.17472,0.67871 -1.46987,0.8487 l -0.53664,0.30907 0,-3.34239 z"
       id="path4327-5"
       inkscape:connector-curvature="0" />
    <path
       style="opacity:1;fill:#ffffff;fill-opacity:1;fill-rule:evenodd;stroke:#000000;stroke-width:0.12626907;stroke-miterlimit:4;stroke-dasharray:none;stroke-opacity:1"
       d="m 214.82135,63.657644 -6.43973,-3.7548 -0.0338,-3.19798 -0.0338,-3.19797 0.74493,0.42312 c 0.4097,0.23272 3.39238,1.95729 6.62816,3.83239 l 5.88323,3.40926 0.001,2.84106 c 0.001,2.69335 -0.0476,3.41542 -0.23081,3.40449 -0.044,-0.003 -2.97785,-1.69443 -6.5197,-3.75957 z"
       id="path4329-4"
       inkscape:connector-curvature="0" />
    <path
       style="opacity:1;fill:#ffffff;fill-opacity:1;fill-rule:evenodd;stroke:#000000;stroke-width:0.12626907;stroke-miterlimit:4;stroke-dasharray:none;stroke-opacity:1"
       d="m 277.34986,93.497984 c -5.8197,-3.36096 -10.57949,-6.15832 -10.5773,-6.21635 0.004,-0.10694 21.02915,-12.29049 21.20965,-12.29049 0.0983,0 21.08178,12.07936 21.254,12.23511 0.0713,0.0645 -21.10026,12.39491 -21.26529,12.38496 -0.0219,-0.001 -4.80135,-2.75228 -10.62106,-6.11323 z"
       id="path4331-1"
       inkscape:connector-curvature="0" />
    <path
       style="opacity:1;fill:#ffffff;fill-opacity:1;fill-rule:evenodd;stroke:#000000;stroke-width:0.12626907;stroke-miterlimit:4;stroke-dasharray:none;stroke-opacity:1"
       d="m 277.00887,98.793704 c -5.79891,-3.25354 -10.58532,-5.93273 -10.63647,-5.95375 -0.0697,-0.0286 -0.34798,-4.60053 -0.28823,-4.73564 0.006,-0.014 4.8234,2.77023 10.7049,6.18719 l 10.69364,6.212646 0.0605,0.50507 c 0.11728,0.97933 0.19213,3.72478 0.10121,3.71247 -0.0506,-0.007 -4.83664,-2.67446 -10.63554,-5.927986 z"
       id="path4333-9"
       inkscape:connector-curvature="0" />
    <path
       style="opacity:1;fill:#ffffff;fill-opacity:1;fill-rule:evenodd;stroke:#000000;stroke-width:0.06313454;stroke-linecap:round;stroke-linejoin:round;stroke-miterlimit:4;stroke-dasharray:none;stroke-opacity:1"
       d="m 145.22986,117.16168 c -5.87393,-3.39285 -10.65938,-6.19044 -10.63433,-6.21686 0.025,-0.0264 4.84106,-2.81694 10.70226,-6.20117 10.33262,-5.966 10.66181,-6.15049 10.82373,-6.06617 0.3418,0.17798 21.1924,12.22923 21.23158,12.27145 0.0386,0.0416 -21.2096,12.34046 -21.36827,12.36837 -0.0413,0.007 -4.88105,-2.76277 -10.75497,-6.15562 z"
       id="path4530"
       inkscape:connector-curvature="0" />
    <path
       style="fill:none;fill-rule:evenodd;stroke:#000000;stroke-width:1px;stroke-linecap:round;stroke-linejoin:round;stroke-opacity:1"
       d="m 156.32111,129.44128 -22.60217,-12.62691 -0.25253,-6.06091 22.60216,13.13198 z"
       id="path4293"
       inkscape:connector-curvature="0" />
    <path
       style="opacity:1;fill:#ffffff;fill-opacity:1;fill-rule:evenodd;stroke:#000000;stroke-width:0.12626907;stroke-linecap:round;stroke-linejoin:round;stroke-miterlimit:4;stroke-dasharray:none;stroke-opacity:1"
       d="m 144.91306,122.43159 -10.62651,-5.94616 -0.077,-1.59156 c -0.0423,-0.87536 -0.0926,-1.94291 -0.1118,-2.37233 l -0.0349,-0.78076 0.46367,0.27569 c 0.25502,0.15163 5.06967,2.94628 10.69923,6.21033 l 10.23555,5.93465 0.0648,0.50507 c 0.11937,0.93084 0.19865,3.72502 0.1055,3.71808 -0.0507,-0.004 -4.87401,-2.68263 -10.7186,-5.95301 z"
       id="path4587"
       inkscape:connector-curvature="0" />
    <g
       id="g4609"
       transform="translate(-57.555556,170.85156)">
      <path
         d="m 136.30404,105.85372 22.516,-13 22.51601,13 -22.516,13 z"
         id="path2"
         style="opacity:1;fill:none;stroke:#000000;stroke-width:0.93059099"
         inkscape:connector-curvature="0" />
      <path
         d="m 93.102895,87.66895 0,-4 -14.722,-8.5 22.515995,-13 14.722,8.5 6.928,0 38.97,22.5 -29.444,17 z"
         id="path4"
         style="opacity:1;fill:none;stroke:#000000;stroke-width:0.93059099"
         inkscape:connector-curvature="0" />
      <path
         style="opacity:1;fill:none;stroke:#000000;stroke-width:0.93059099"
         id="path2-8-6"
         d="m 136.13166,100.21774 22.516,-13 22.516,13 -22.516,13 z"
         inkscape:connector-curvature="0" />
      <path
         style="opacity:1;fill:none;stroke:#000000;stroke-width:0.93059099"
         id="path4-3"
         d="m 92.948876,78.677319 0,-4 -14.722,-8.5 22.516004,-13 14.722,8.5 6.928,0 38.97,22.5 -29.444,17.000001 z"
         inkscape:connector-curvature="0" />
      <path
         style="fill:none;stroke:#000000;stroke-width:0.96011698px;stroke-linecap:butt;stroke-linejoin:miter;stroke-opacity:1"
         d="m 78.226876,66.177319 0.154019,8.991631"
         id="path875"
         sodipodi:nodetypes="cc"
         inkscape:connector-curvature="0" />
      <path
         sodipodi:nodetypes="cc"
         id="path875-6"
         d="m 100.74287,53.177319 0.15402,8.991631"
         style="fill:none;stroke:#000000;stroke-width:0.96011698px;stroke-linecap:butt;stroke-linejoin:miter;stroke-opacity:1"
         inkscape:connector-curvature="0" />
      <path
         sodipodi:nodetypes="cc"
         id="path875-2"
         d="m 92.948876,78.677319 0.154019,8.991631"
         style="fill:none;stroke:#000000;stroke-width:0.96011698px;stroke-linecap:butt;stroke-linejoin:miter;stroke-opacity:1"
         inkscape:connector-curvature="0" />
      <path
         sodipodi:nodetypes="cc"
         id="path875-8"
         d="m 122.39287,61.677319 0.15402,8.991631"
         style="fill:none;stroke:#000000;stroke-width:0.96011698px;stroke-linecap:butt;stroke-linejoin:miter;stroke-opacity:1"
         inkscape:connector-curvature="0" />
      <path
         style="fill:none;stroke:#000000;stroke-width:0.96011698px;stroke-linecap:butt;stroke-linejoin:miter;stroke-opacity:1"
         d="m 161.36287,84.177319 0.15402,8.991631"
         id="path875-8-7"
         sodipodi:nodetypes="cc"
         inkscape:connector-curvature="0" />
      <path
         style="fill:none;stroke:#000000;stroke-width:0.96011698px;stroke-linecap:butt;stroke-linejoin:miter;stroke-opacity:1"
         d="m 131.91887,101.17732 0.15402,8.99163"
         id="path875-8-6"
         sodipodi:nodetypes="cc"
         inkscape:connector-curvature="0" />
      <path
         sodipodi:nodetypes="cc"
         id="path875-2-0-9"
         d="m 136.13165,100.21774 0.17239,5.63598"
         style="fill:none;stroke:#000000;stroke-width:0.93603599px;stroke-linecap:butt;stroke-linejoin:miter;stroke-opacity:1"
         inkscape:connector-curvature="0" />
      <path
         style="fill:none;stroke:#000000;stroke-width:0.93603599px;stroke-linecap:butt;stroke-linejoin:miter;stroke-opacity:1"
         d="m 158.64765,87.21774 0.17239,5.63598"
         id="path875-2-0-9-0"
         sodipodi:nodetypes="cc"
         inkscape:connector-curvature="0" />
      <path
         sodipodi:nodetypes="cc"
         id="path875-2-0-9-0-1"
         d="m 181.16366,100.21774 0.17239,5.63598"
         style="fill:none;stroke:#000000;stroke-width:0.93603599px;stroke-linecap:butt;stroke-linejoin:miter;stroke-opacity:1"
         inkscape:connector-curvature="0" />
      <path
         sodipodi:nodetypes="cc"
         id="path875-2-0-9-0-2"
         d="m 158.64766,113.21774 0.17239,5.63598"
         style="fill:none;stroke:#000000;stroke-width:0.93603599px;stroke-linecap:butt;stroke-linejoin:miter;stroke-opacity:1"
         inkscape:connector-curvature="0" />
    </g>
    <path
       id="path4645"
       d="m 230.82311,202.01528 0,-4 -14.722,-8.5 22.516,-13 14.722,8.5 6.928,0 38.97,22.5 -29.444,17 -38.97,-22.5 z"
       inkscape:connector-curvature="0"
       style="fill:#ffffff;stroke:#000000;stroke-width:1;stroke-linejoin:round;stroke-linecap:round;stroke-miterlimit:4;stroke-dasharray:none" />
    <path
       style="fill:#ffffff;fill-rule:evenodd;stroke:#000000;stroke-width:1;stroke-linecap:round;stroke-linejoin:round;stroke-opacity:1;stroke-miterlimit:4;stroke-dasharray:none"
       d="m 216.10111,189.51528 0,9 14.722,8.5 0,-9 z"
       id="path4655"
       inkscape:connector-curvature="0" />
    <path
       style="fill:#ffffff;fill-rule:evenodd;stroke:#000000;stroke-width:1;stroke-linecap:round;stroke-linejoin:round;stroke-opacity:1;stroke-miterlimit:4;stroke-dasharray:none"
       d="m 230.82311,211.01528 0,-9 38.97,22.5 0,9 z"
       id="path4657"
       inkscape:connector-curvature="0" />
    <path
       style="fill:#ffffff;fill-rule:evenodd;stroke:#000000;stroke-width:1;stroke-linecap:round;stroke-linejoin:round;stroke-opacity:1;stroke-miterlimit:4;stroke-dasharray:none"
       d="m 269.79311,233.51528 29.444,-17 0,-9 -29.444,17 z"
       id="path4659"
       inkscape:connector-curvature="0" />
    <path
       style="fill:#ffffff;fill-rule:evenodd;stroke:#000000;stroke-width:1;stroke-linecap:round;stroke-linejoin:round;stroke-opacity:1;stroke-miterlimit:4;stroke-dasharray:none"
       d="m 273.25711,224.51528 0,5 22.516,13 0,-5 z"
       id="path4661"
       inkscape:connector-curvature="0" />
    <path
       style="fill:#ffffff;fill-rule:evenodd;stroke:#000000;stroke-width:1;stroke-linecap:round;stroke-linejoin:round;stroke-opacity:1;stroke-miterlimit:4;stroke-dasharray:none"
       d="m 295.77311,237.51528 22.516,-13 0,5 -22.516,13 z"
       id="path4663"
       inkscape:connector-curvature="0" />
    <path
       id="path4643"
       d="m 273.25711,224.51528 22.516,-13 22.516,13 -22.516,13 -22.516,-13 z"
       inkscape:connector-curvature="0"
       style="fill:#ffffff;stroke:#000000;stroke-width:1;stroke-linejoin:round;stroke-linecap:round;stroke-miterlimit:4;stroke-dasharray:none" />
    <path
       style="fill:#ffffff;stroke:#000000;stroke-width:1;stroke-linecap:round;stroke-linejoin:round;stroke-miterlimit:4;stroke-dasharray:none"
       d="m 392.66558,233.84179 -22.51563,13 0,9 14.72071,8.5 0,4 38.9707,22.5 5.19726,-3 20.78321,12 22.51562,-13 0,-5 -19.05273,-11 0,-6 -38.96875,-22.5 -6.92774,0 -14.72265,-8.5 z"
       id="path4665"
       inkscape:connector-curvature="0" />
  </g>
</svg>
