<?xml version="1.0" encoding="UTF-8" standalone="no"?>
<svg
   xmlns:dc="http://purl.org/dc/elements/1.1/"
   xmlns:cc="http://creativecommons.org/ns#"
   xmlns:rdf="http://www.w3.org/1999/02/22-rdf-syntax-ns#"
   xmlns:svg="http://www.w3.org/2000/svg"
   xmlns="http://www.w3.org/2000/svg"
   xmlns:sodipodi="http://sodipodi.sourceforge.net/DTD/sodipodi-0.dtd"
   xmlns:inkscape="http://www.inkscape.org/namespaces/inkscape"
   sodipodi:docname="l2.svg"
   inkscape:version="1.0 (4035a4fb49, 2020-05-01)"
   version="1.1"
   id="svg2"
   viewBox="0 0 744.09448819 1052.3622047"
   height="297mm"
   width="210mm">
  <defs
     id="defs4" />
  <sodipodi:namedview
     inkscape:snap-nodes="false"
     inkscape:document-rotation="0"
     inkscape:window-maximized="1"
     inkscape:window-y="-8"
     inkscape:window-x="-8"
     inkscape:window-height="1027"
     inkscape:window-width="1920"
     showguides="false"
     inkscape:snap-others="false"
     inkscape:snap-intersection-paths="false"
     inkscape:object-nodes="true"
     inkscape:snap-smooth-nodes="false"
     showgrid="false"
     inkscape:current-layer="layer1"
     inkscape:document-units="px"
     inkscape:cy="811.32714"
     inkscape:cx="741.99143"
     inkscape:zoom="0.5"
     inkscape:pageshadow="2"
     inkscape:pageopacity="0.0"
     borderopacity="1.0"
     bordercolor="#666666"
     pagecolor="#ffffff"
     id="base" />
  <metadata
     id="metadata7">
    <rdf:RDF>
      <cc:Work
         rdf:about="">
        <dc:format>image/svg+xml</dc:format>
        <dc:type
           rdf:resource="http://purl.org/dc/dcmitype/StillImage" />
        <dc:title></dc:title>
      </cc:Work>
    </rdf:RDF>
  </metadata>
  <g
     id="layer1"
     inkscape:groupmode="layer"
     inkscape:label="Layer 1">
    <g
       transform="translate(-21.565058,568.7686)"
       id="g1262">
      <path
         style="color:#000000;font-style:normal;font-variant:normal;font-weight:normal;font-stretch:normal;font-size:medium;line-height:normal;font-family:sans-serif;font-variant-ligatures:normal;font-variant-position:normal;font-variant-caps:normal;font-variant-numeric:normal;font-variant-alternates:normal;font-variant-east-asian:normal;font-feature-settings:normal;font-variation-settings:normal;text-indent:0;text-align:start;text-decoration:none;text-decoration-line:none;text-decoration-style:solid;text-decoration-color:#000000;letter-spacing:normal;word-spacing:normal;text-transform:none;writing-mode:lr-tb;direction:ltr;text-orientation:mixed;dominant-baseline:auto;baseline-shift:baseline;text-anchor:start;white-space:normal;shape-padding:0;shape-margin:0;inline-size:0;clip-rule:nonzero;display:inline;overflow:visible;visibility:visible;opacity:1;isolation:auto;mix-blend-mode:normal;color-interpolation:sRGB;color-interpolation-filters:linearRGB;solid-color:#000000;solid-opacity:1;vector-effect:none;fill:#ffffff;fill-opacity:1;fill-rule:nonzero;stroke:#000000;stroke-width:0.9375;stroke-linecap:butt;stroke-linejoin:miter;stroke-miterlimit:4;stroke-dasharray:none;stroke-dashoffset:0;stroke-opacity:1;color-rendering:auto;image-rendering:auto;shape-rendering:auto;text-rendering:auto;enable-background:accumulate;stop-color:#000000;stop-opacity:1"
         d="m 574.79931,91.684196 c -10.21655,-0.879777 -19.4352,2.574854 -27.66601,8.744144 -8.23081,6.16928 -15.58754,15.02335 -22.57617,25.26171 -13.97728,20.47673 -26.49658,46.58047 -40.35938,68.15235 -13.79486,21.46616 -28.80791,38.09341 -47.16211,40.91601 -19.24819,-2.29036 -32.98269,-11.0657 -44.23047,-23.2207 -11.31613,-12.22888 -20.00022,-27.9039 -28.64843,-43.48242 -8.64822,-15.57852 -17.25576,-31.06548 -28.75977,-42.83985 -11.50401,-11.77436 -26.07453,-19.75465 -45.9043,-19.91796 l -0.0391,4.6875 c 18.61277,0.15328 31.71299,7.37334 42.5918,18.50781 10.8788,11.13447 19.36717,26.26598 28.01172,41.83789 8.64454,15.57191 17.45041,31.57809 29.30664,44.39062 11.85623,12.81253 26.88973,22.39101 47.47851,24.74805 l 0.30274,0.0352 0.30273,-0.043 c 20.8132,-3.04059 36.59707,-21.15073 50.69336,-43.08594 14.09629,-21.9352 26.6239,-48.02634 40.28711,-68.04297 6.83161,-10.00831 13.9428,-18.47673 21.51758,-24.15429 7.57477,-5.677571 15.50013,-8.595022 24.45117,-7.824222 17.90208,1.541601 40.80246,18.557912 70.67187,62.273432 l 3.8711,-2.64453 C 618.76617,111.82207 595.23243,93.443752 574.79931,91.684196 Z"
         id="path1216" />
      <g
         id="g1210">
        <path
           inkscape:connector-curvature="0"
           id="path4665"
           d="m 656.05366,148.36433 -22.51563,13 v 9 l 14.72071,8.5 v 4 l 38.9707,22.5 5.19726,-3 20.78321,12 22.51562,-13 v -5 l -19.05273,-11 v -6 l -38.96875,-22.5 h -6.92774 z"
           style="fill:#ffffff;stroke:#000000;stroke-width:4.6875;stroke-linecap:round;stroke-linejoin:round;stroke-miterlimit:4;stroke-dasharray:none" />
        <g
           transform="translate(417.43633,-28.15095)"
           id="g883">
          <path
             id="path4645"
             d="m 230.82311,202.01528 v -4 l -14.722,-8.5 22.516,-13 14.722,8.5 h 6.928 l 38.97,22.5 -29.444,17 z"
             inkscape:connector-curvature="0"
             style="fill:#ffffff;stroke:#000000;stroke-width:1;stroke-linecap:round;stroke-linejoin:round;stroke-miterlimit:4;stroke-dasharray:none" />
          <path
             style="fill:#ffffff;fill-rule:evenodd;stroke:#000000;stroke-width:1;stroke-linecap:round;stroke-linejoin:round;stroke-miterlimit:4;stroke-dasharray:none;stroke-opacity:1"
             d="m 216.10111,189.51528 v 9 l 14.722,8.5 v -9 z"
             id="path4655"
             inkscape:connector-curvature="0" />
          <path
             style="fill:#ffffff;fill-rule:evenodd;stroke:#000000;stroke-width:1;stroke-linecap:round;stroke-linejoin:round;stroke-miterlimit:4;stroke-dasharray:none;stroke-opacity:1"
             d="m 230.82311,211.01528 v -9 l 38.97,22.5 v 9 z"
             id="path4657"
             inkscape:connector-curvature="0" />
          <path
             style="fill:#ffffff;fill-rule:evenodd;stroke:#000000;stroke-width:1;stroke-linecap:round;stroke-linejoin:round;stroke-miterlimit:4;stroke-dasharray:none;stroke-opacity:1"
             d="m 269.79311,233.51528 29.444,-17 v -9 l -29.444,17 z"
             id="path4659"
             inkscape:connector-curvature="0" />
          <path
             style="fill:#ffffff;fill-rule:evenodd;stroke:#000000;stroke-width:1;stroke-linecap:round;stroke-linejoin:round;stroke-miterlimit:4;stroke-dasharray:none;stroke-opacity:1"
             d="m 273.25711,224.51528 v 5 l 22.516,13 v -5 z"
             id="path4661"
             inkscape:connector-curvature="0" />
          <path
             style="fill:#ffffff;fill-rule:evenodd;stroke:#000000;stroke-width:1;stroke-linecap:round;stroke-linejoin:round;stroke-miterlimit:4;stroke-dasharray:none;stroke-opacity:1"
             d="m 295.77311,237.51528 22.516,-13 v 5 l -22.516,13 z"
             id="path4663"
             inkscape:connector-curvature="0" />
          <path
             id="path4643"
             d="m 273.25711,224.51528 22.516,-13 22.516,13 -22.516,13 z"
             inkscape:connector-curvature="0"
             style="fill:#ffffff;stroke:#000000;stroke-width:1;stroke-linecap:round;stroke-linejoin:round;stroke-miterlimit:4;stroke-dasharray:none" />
        </g>
      </g>
      <g
         id="g1189"
         transform="translate(34.705921,11.232235)">
        <path
           sodipodi:nodetypes="sccccccccs"
           d="m 186.20424,77.143097 c -29.71404,0.152232 -58.19641,4.462275 -68.15735,7.450557 -57.187501,14.0625 -96.562498,46.875006 -104.999994,82.500006 0.01294,0.0306 0.0255,0.0591 0.03844,0.0897 -3.2920594,11.38223 -0.32984,30.56922 11.471559,50.64697 20.515946,33.75 63.413296,46.875 104.445185,42.1875 61.15476,-7.4521 159.11867,-85.24081 153.96424,-128.53821 0.0267,-0.003 0.0538,-0.008 0.0805,-0.011 -0.9375,-20.625 -14.06251,-34.687497 -27.1875,-41.249997 C 239.59963,80.111232 212.42251,77.008772 186.20424,77.143097 Z"
           style="fill:none;stroke:#000000;stroke-width:4.6875;stroke-miterlimit:4;stroke-dasharray:none"
           id="path995-6" />
        <path
           style="fill:none;stroke:#000000;stroke-width:0.9375"
           d="m 13.04796,167.32803 c 8.4375,-35.62499 47.812499,-68.437495 105,-82.499995 30.9375,0 50.62499,3.75 73.12499,19.687505 24.375,19.6875 33.75,42.18749 20.625,70.31249 -66.56249,52.5 -145.312491,119.0625 -198.74999,-7.5 z"
           id="path995" />
        <path
           style="fill:none;stroke:#000000;stroke-width:0.9375"
           d="m 283.04795,131.70303 c -20.625,4.6875 -45,23.4375 -71.25,44.0625 -66.5625,52.5 -145.312499,118.125 -199.687499,-8.4375 -3.75,11.25 -0.9375,30.9375 11.25,51.5625 20.625,33.75 63.75,46.875 104.999999,42.1875 61.875,-7.5 161.25,-86.25 154.6875,-129.375 z"
           id="path1006" />
        <path
           style="fill:none;stroke:#000000;stroke-width:0.9375"
           d="m 191.17296,104.51554 c -23.4375,-15.000005 -42.1875,-19.687505 -73.125,-19.687505 18.75,-5.625 103.125,-15.9375 137.8125,5.625 h -15.9375 c -7.5,-8.4375 -41.25,-0.9375 -38.4375,10.312505 z"
           id="path1028" />
        <g
           style="fill:#ffffff"
           transform="matrix(0.92762696,0,0,1.0102448,-112.47964,-5.4257626)"
           id="g1140">
          <g
             id="g1135"
             transform="translate(3.75e-4,-4.684375e-4)"
             style="fill:#ffffff;stroke-width:2.8125;stroke-miterlimit:4;stroke-dasharray:none">
            <path
               id="path1039-8"
               style="opacity:1;fill:#ffffff;stroke:#000000;stroke-width:2.8125;stroke-miterlimit:4;stroke-dasharray:none"
               d="m 366.2307,89.881487 c -4.74381,-0.01471 -10.22045,0.824444 -14.61592,2.778085 -8.56099,4.998705 -12.49916,8.683298 -11.81974,13.471948 0.5278,4.16121 1.18712,7.12617 3.26366,9.60629 4.04673,4.23084 16.0383,4.66205 26.78467,0.96314 9.77447,-3.36517 13.25813,-9.45928 12.87452,-14.0209 -1.31895,-4.896804 -2.24385,-6.597016 -4.43885,-9.319597 -2.09779,-2.194407 -6.48451,-3.461087 -12.04834,-3.479003 z"
               sodipodi:nodetypes="ccccccccc" />
          </g>
          <path
             id="path1039"
             style="opacity:1;fill:#ffffff;stroke:#000000;stroke-width:0.9375;stroke-miterlimit:4;stroke-dasharray:none"
             d="m 366.23106,89.880981 c -4.74381,-0.01471 -10.22001,0.82407 -14.61548,2.77771 -8.56099,4.998705 -12.49887,8.684249 -11.81945,13.472899 0.33317,2.62679 0.72174,4.77422 1.48315,6.62659 a 9.7500591,21.365824 77.213432 0 1 13.56446,-11.78467 9.7500591,21.365824 77.213432 0 1 26.98424,1.00525 9.7500591,21.365824 77.213432 0 1 0.90821,1.32751 c -0.001,-0.21063 -0.001,-0.42137 -0.0183,-0.62622 -1.31895,-4.896804 -2.24347,-6.597485 -4.43847,-9.320065 -2.0978,-2.194408 -6.48451,-3.461087 -12.04836,-3.479004 z" />
        </g>
        <path
           style="fill:#ffffff;stroke:#000000;stroke-width:0.937896"
           d="m 211.09363,175.87049 c 34.33695,-28.43617 53.82548,-41.70637 70.52996,-43.60212 -0.92804,-20.8532 -13.92039,-35.071284 -26.91275,-41.70639 L 238.9344,89.614107 c 1.85605,9.478723 -28.7688,20.853193 -38.97707,10.426593 l -9.28027,4.73938 c 24.12866,19.90531 33.40892,42.65424 20.41657,71.09041 z"
           id="path1017" />
      </g>
    </g>
    <g
       transform="matrix(2.1587698,0,0,1.6018149,-554.94752,-824.00665)"
       id="g1559">
      <path
         sodipodi:nodetypes="ccccc"
         id="path1391-9"
         d="m 595.38775,745.86413 0.50133,10.76619 -140.5335,145.48812 -0.43558,-8.47508 z"
         style="fill:#ffffff;stroke:#000000;stroke-width:4.71249;stroke-linecap:round;stroke-linejoin:round;stroke-miterlimit:4;stroke-dasharray:none;stroke-opacity:1" />
      <rect
         style="fill:#ffffff;stroke:#000000;stroke-width:4.72552;stroke-linecap:round;stroke-linejoin:round;stroke-miterlimit:4;stroke-dasharray:none"
         id="rect1298-1-7"
         width="202.81398"
         height="145.95659"
         x="-504.95425"
         y="814.19147"
         transform="matrix(0.68837785,-0.72535229,0.83647401,0.5480066,0,0)" />
      <path
         sodipodi:nodetypes="ccccc"
         id="path1389-5"
         d="m 333.65138,812.03253 0.62936,7.53669 119.96534,81.66772 -0.42611,-8.51143 z"
         style="fill:#ffffff;stroke:#000000;stroke-width:4.67102;stroke-linecap:round;stroke-linejoin:round;stroke-miterlimit:4;stroke-dasharray:none;stroke-opacity:1" />
      <path
         sodipodi:nodetypes="ccccc"
         id="path1385-7"
         d="m 270.54452,665.83152 53.00523,141.38698 10.17408,4.8859 -53.63217,-140.52462 z"
         style="fill:#ffffff;stroke:#000000;stroke-width:4.66263;stroke-linecap:round;stroke-linejoin:round;stroke-miterlimit:4;stroke-dasharray:none;stroke-opacity:1" />
      <rect
         transform="matrix(0.85485755,0.51886276,-0.68581816,0.72777294,0,0)"
         y="234.67876"
         x="667.11279"
         height="202.60158"
         width="11.182567"
         id="rect1368-9"
         style="fill:#ffffff;stroke:#000000;stroke-width:4.73996;stroke-linecap:round;stroke-linejoin:round;stroke-miterlimit:4;stroke-dasharray:none" />
      <rect
         y="743.60077"
         x="34.404236"
         height="151.10437"
         width="199.88185"
         id="rect1298-0"
         style="fill:#ffffff;stroke:#000000;stroke-width:4.88158;stroke-linecap:round;stroke-linejoin:round;stroke-miterlimit:4;stroke-dasharray:none"
         transform="matrix(0.68079548,-0.73247356,0.35068189,0.93649464,0,0)" />
      <g
         id="g1345"
         transform="matrix(0.39710557,-0.41843508,0.22274618,0.58257122,64.27411,364.71454)"
         style="stroke-width:1.23317;stroke-linecap:round;stroke-linejoin:round;stroke-miterlimit:4;stroke-dasharray:none">
        <rect
           y="650.56287"
           x="176.53186"
           height="244.07027"
           width="351.57571"
           id="rect1298"
           style="opacity:1;fill:#ffffff;stroke:#000000;stroke-width:1.23317;stroke-linecap:round;stroke-linejoin:round;stroke-miterlimit:4;stroke-dasharray:none" />
        <rect
           y="669.81201"
           x="189.93153"
           height="206.91971"
           width="325.10464"
           id="rect1300"
           style="opacity:1;fill:#ffffff;stroke:#000000;stroke-width:1.23317;stroke-linecap:round;stroke-linejoin:round;stroke-miterlimit:4;stroke-dasharray:none" />
      </g>
      <g
         id="g1341"
         transform="matrix(0.39710551,-0.41843501,0.50022028,0.32771373,-212.52323,831.97052)"
         style="stroke-width:1.2058;stroke-linecap:round;stroke-linejoin:round;stroke-miterlimit:4;stroke-dasharray:none">
        <rect
           style="opacity:1;fill:#ffffff;stroke:#000000;stroke-width:1.2058;stroke-linecap:round;stroke-linejoin:round;stroke-miterlimit:4;stroke-dasharray:none"
           id="rect1298-1"
           width="351.57571"
           height="244.07027"
           x="556.67462"
           y="649.94702" />
        <rect
           y="658.9234"
           x="569.216"
           height="157.67113"
           width="328.01199"
           id="rect1334"
           style="opacity:1;fill:#ffffff;stroke:#000000;stroke-width:1.2058;stroke-linecap:round;stroke-linejoin:round;stroke-miterlimit:4;stroke-dasharray:none" />
        <rect
           y="827.56445"
           x="680.71967"
           height="55.256355"
           width="101.07006"
           id="rect1336"
           style="opacity:1;fill:#ffffff;stroke:#000000;stroke-width:1.2058;stroke-linecap:round;stroke-linejoin:round;stroke-miterlimit:4;stroke-dasharray:none" />
      </g>
      <rect
         style="fill:#ffffff;stroke:#000000;stroke-width:0.80727;stroke-linecap:round;stroke-linejoin:round;stroke-miterlimit:4;stroke-dasharray:none"
         id="rect1368"
         width="11.182567"
         height="202.60158"
         x="667.11279"
         y="234.67874"
         transform="matrix(0.85485755,0.51886276,-0.68581816,0.72777294,0,0)" />
      <path
         style="fill:#ffffff;stroke:#000000;stroke-width:0.702525px;stroke-linecap:round;stroke-linejoin:round;stroke-opacity:1"
         d="m 333.65201,812.03493 0.63942,7.47058 121.88238,80.95137 -0.43292,-8.43678 z"
         id="path1389"
         sodipodi:nodetypes="ccccc" />
      <path
         style="fill:#ffffff;stroke:#000000;stroke-width:0.702525px;stroke-linecap:round;stroke-linejoin:round;stroke-opacity:1"
         d="m 595.35355,744.9085 0.49827,10.71756 -139.67801,144.83081 -0.43293,-8.43677 z"
         id="path1391"
         sodipodi:nodetypes="ccccc" />
      <path
         style="fill:#ffffff;stroke:#000000;stroke-width:0.702525px;stroke-linecap:round;stroke-linejoin:round;stroke-opacity:1"
         d="m 270.39162,664.38076 53.0739,142.71388 10.18728,4.93175 -53.70168,-141.84342 z"
         id="path1385"
         sodipodi:nodetypes="ccccc" />
    </g>
  </g>
</svg>
