<?xml version="1.0" encoding="UTF-8" standalone="no"?>
<svg
   xmlns:dc="http://purl.org/dc/elements/1.1/"
   xmlns:cc="http://creativecommons.org/ns#"
   xmlns:rdf="http://www.w3.org/1999/02/22-rdf-syntax-ns#"
   xmlns:svg="http://www.w3.org/2000/svg"
   xmlns="http://www.w3.org/2000/svg"
   xmlns:xlink="http://www.w3.org/1999/xlink"
   xmlns:sodipodi="http://sodipodi.sourceforge.net/DTD/sodipodi-0.dtd"
   xmlns:inkscape="http://www.inkscape.org/namespaces/inkscape"
   sodipodi:docname="[upd]drawing.svg"
   inkscape:version="1.0 (4035a4fb49, 2020-05-01)"
   version="1.1"
   id="svg2"
   viewBox="0 0 744.09448819 1052.3622047"
   height="297mm"
   width="210mm">
  <defs
     id="defs4">
    <linearGradient
       id="linearGradient4461"
       inkscape:collect="always">
      <stop
         id="stop4463"
         offset="0"
         style="stop-color:#00ff00;stop-opacity:1;" />
      <stop
         id="stop4465"
         offset="1"
         style="stop-color:#008000;stop-opacity:1" />
    </linearGradient>
    <linearGradient
       gradientTransform="translate(0.06278085,-0.14648392)"
       gradientUnits="userSpaceOnUse"
       y2="202.3622"
       x2="538.57141"
       y1="372.36218"
       x1="71.428574"
       id="linearGradient4467"
       xlink:href="#linearGradient4461"
       inkscape:collect="always" />
  </defs>
  <sodipodi:namedview
     inkscape:document-rotation="0"
     inkscape:window-maximized="1"
     inkscape:window-y="-8"
     inkscape:window-x="-8"
     inkscape:window-height="1027"
     inkscape:window-width="1920"
     showgrid="false"
     inkscape:current-layer="layer1"
     inkscape:document-units="px"
     inkscape:cy="739.4315"
     inkscape:cx="-327.318"
     inkscape:zoom="0.49497475"
     inkscape:pageshadow="2"
     inkscape:pageopacity="0.0"
     borderopacity="1.0"
     bordercolor="#666666"
     pagecolor="#ffffff"
     id="base" />
  <metadata
     id="metadata7">
    <rdf:RDF>
      <cc:Work
         rdf:about="">
        <dc:format>image/svg+xml</dc:format>
        <dc:type
           rdf:resource="http://purl.org/dc/dcmitype/StillImage" />
        <dc:title></dc:title>
      </cc:Work>
    </rdf:RDF>
  </metadata>
  <g
     id="layer1"
     inkscape:groupmode="layer"
     inkscape:label="Layer 1">
    <path
       d="m 105.83831,384.95347 a 8.586297,7.0710678 0 0 1 -8.586293,7.07107 8.586297,7.0710678 0 0 1 -8.5863,-7.07107 8.586297,7.0710678 0 0 1 8.5863,-7.07106 8.586297,7.0710678 0 0 1 8.586293,7.07106 m 2.82529,-32.22229 a 8.586297,7.0710678 0 0 1 -8.5863,7.07107 8.586297,7.0710678 0 0 1 -8.586293,-7.07107 8.586297,7.0710678 0 0 1 8.586293,-7.07106 8.586297,7.0710678 0 0 1 8.5863,7.07106"
       style="fill:#000000;stroke:#000000;stroke-width:0.207748;stroke-miterlimit:4;stroke-dasharray:none;stroke-opacity:1"
       id="eyes" />
    <path
       inkscape:transform-center-y="-137.14265"
       inkscape:transform-center-x="158.57135"
       inkscape:connector-curvature="0"
       id="body"
       d="m 159.87213,601.04737 c -0.89942,-0.52552 -2.17161,-2.25024 -2.82708,-3.83269 -1.05775,-2.55363 -0.79867,-3.66395 2.30371,-9.87293 1.92251,-3.84765 3.99019,-9.40459 4.59484,-12.34875 1.3535,-6.5905 1.44633,-19.39572 0.14061,-19.39572 -2.65048,0 -12.08807,17.42866 -13.6749,25.25382 -0.96621,4.76465 -3.01745,7.78657 -6.88698,10.14597 -3.90396,2.38039 -4.17733,2.39757 -6.18642,0.38847 -3.39053,-3.39053 -1.11354,-11.60686 4.28118,-15.44824 4.0021,-2.84974 7.90609,-8.79354 11.37574,-17.31945 1.62731,-3.99878 2.95875,-7.45069 2.95875,-7.67092 0,-0.22023 -1.44747,-0.40041 -3.21661,-0.40041 -4.85377,0 -11.38115,3.63691 -14.43415,8.04238 -3.18798,4.60028 -8.35176,7.3621 -12.9366,6.91912 -2.87974,-0.27825 -3.29007,-0.7045 -3.57822,-3.71707 -0.72612,-7.59148 5.05683,-14.27489 12.35162,-14.27489 3.07535,0 5.5851,-0.85453 8.83809,-3.00921 6.00242,-3.97584 6.61437,-4.71167 15.61171,-18.77208 20.09624,-31.40497 25.24447,-45.31664 28.2003,-76.2035 0.87729,-9.16714 2.03089,-19.48642 2.56358,-22.93174 1.27789,-8.26525 -0.52445,-12.81495 -7.66008,-19.33651 -8.65967,-7.91445 -17.14789,-9.15971 -24.45349,-3.58746 -6.60801,5.04018 -13.61112,6.77086 -29.35164,7.25372 -38.2309,1.17275 -71.21332,-13.52465 -82.75442,-36.87648 -3.23274,-6.54101 -3.77956,-8.6987 -4.1458,-16.35884 l -0.42188,-8.82399 4.91333,-4.20179 c 11.08009,-9.47553 25.96324,-14.09917 48.34988,-15.02051 24.18402,-0.99531 32.25825,1.44017 46.95873,14.16445 12.87575,11.14485 15.87371,13.05265 21.33597,13.57751 4.32295,0.41538 5.16836,0.14615 7.79769,-2.48316 4.99491,-4.99492 6.55597,-16.84862 3.70705,-28.14904 -2.27658,-9.03016 -10.90722,-25.82013 -15.89467,-30.92132 -11.55726,-11.82082 -27.55042,-18.4935 -35.56886,-14.84005 -2.15694,0.98277 -2.90998,0.86168 -4.69664,-0.75523 -5.37349,-4.86293 -6.38523,-11.26257 -2.28984,-14.48401 3.77812,-2.97187 5.48846,-2.63771 9.9653,1.94699 3.25164,3.32998 4.62895,4.04061 7.83132,4.04061 3.49739,0 9.84635,-2.31272 9.84635,-3.58669 0,-0.2774 -1.5501,-3.58244 -3.44465,-7.34453 -5.0786,-10.08474 -10.65336,-16.64236 -16.40332,-19.29529 -6.19651,-2.85897 -7.42615,-4.47918 -7.42615,-9.78497 0,-5.72088 0.7157,-7.26154 4.21351,-9.07033 5.13352,-2.65465 10.27604,0.25579 11.43002,6.4689 1.14097,6.1431 7.51333,17.05821 13.54151,23.19506 l 5.66522,5.76734 0.30842,-3.16735 c 0.48054,-4.93503 -2.59148,-15.28813 -6.94731,-23.41327 -4.1094,-7.66548 -4.78311,-11.42228 -2.82073,-15.72924 1.51477,-3.32457 3.66172,-4.02959 6.53596,-2.14632 3.9047,2.55846 4.90027,5.60478 5.45462,16.69043 0.46174,9.23392 0.9551,11.50765 3.81212,17.56886 l 3.28174,6.96225 2.14554,-1.91149 c 3.49952,-3.11777 4.95098,-7.925 4.79684,-15.88709 -0.14573,-7.5271 1.24653,-11.99243 4.60932,-14.78329 4.02085,-3.33702 9.63314,3.65872 9.63314,12.00773 0,3.10174 -0.66498,4.6691 -2.90663,6.85097 -3.31937,3.23086 -5.17459,8.0321 -5.17459,13.39161 0,2.03227 -0.91708,8.66932 -2.03796,14.74902 -1.12087,6.07969 -1.77677,12.25777 -1.45755,13.72908 0.44195,2.03693 2.50131,3.79121 8.63266,7.35377 9.99636,5.80829 21.49659,16.5984 26.24407,24.62357 2.1764,3.67898 4.9345,10.90696 6.98014,18.29237 1.86009,6.71552 3.8023,12.21003 4.31602,12.21003 2.08536,0 14.26268,-12.98985 19.79773,-21.11873 3.25097,-4.77443 11.04122,-17.54486 17.31169,-28.37874 22.61757,-39.07777 30.34255,-47.51258 49.66993,-54.23398 13.3362,-4.63787 25.22894,-6.4446 46.56235,-7.07369 10.97278,-0.32357 19.94284,-0.86699 19.93348,-1.20759 -0.009,-0.3406 -3.42367,-4.84909 -7.58734,-10.01885 -8.57714,-10.64971 -11.7541,-16.3439 -14.0395,-25.16354 -2.06505,-7.96927 -2.05974,-24.85988 0.0112,-35.77712 3.10227,-16.35384 -1.21078,-33.40854 -9.82389,-38.84576 -3.96484,-2.5029 -4.11744,-2.78908 -3.58876,-6.73065 1.12659,-8.39932 7.6606,-12.41876 12.64268,-7.77724 2.0538,1.91341 2.24516,2.76918 1.66228,7.43432 -0.5893,4.71666 -0.38189,5.60097 1.96901,8.39485 1.44523,1.71757 3.93958,3.58017 5.543,4.13913 2.85221,0.99428 2.98249,0.88157 6.01969,-5.20776 5.25471,-10.53526 6.09634,-17.68768 3.65115,-31.028679 -0.6009,-3.27859 -0.2984,-3.91651 3.47284,-7.3236 4.81274,-4.34803 7.92836,-4.70847 11.81343,-1.36668 3.6369,3.12833 3.54571,7.00605 -0.3007,12.78678 -4.21681,6.337409 -6.02005,11.444569 -7.41905,21.012399 -1.35299,9.25314 -0.88158,12.31772 1.58046,10.27441 3.33165,-2.76503 11.49101,-16.35273 13.56843,-22.5954 2.64625,-7.951989 6.6951,-11.994719 11.54025,-11.522809 3.0957,0.30152 3.1412,0.38598 3.09178,5.739933 -0.0439,4.758416 -0.42067,5.739396 -3.03046,7.891196 -8.08303,6.66451 -11.8216,11.1015 -15.10372,17.92533 -1.94366,4.04105 -3.53393,7.64058 -3.53393,7.99897 0,0.35839 1.83639,0.65162 4.08085,0.65162 5.06436,0 11.24319,-3.05639 13.99693,-6.92366 4.26351,-5.98755 14.33444,-8.32874 16.39292,-3.81087 0.86644,1.90162 0.67258,3.34643 -0.93732,6.98587 -2.62984,5.94521 -6.07639,8.15962 -12.86198,8.26383 -4.52369,0.0695 -6.23586,0.70113 -11.10501,4.09693 -3.16621,2.20815 -9.44989,6.51494 -13.96377,9.57065 -11.3872,7.70869 -11.75931,8.59419 -7.85297,18.68782 5.44374,14.06614 16.00983,27.89131 28.48135,37.26631 l 5.93519,4.46158 13.2332,-6.03846 c 52.83539,-24.10936 95.6627,-25.0272 142.74584,-3.05919 7.64583,3.56738 9.52025,4.81565 8.08122,5.38167 -1.03049,0.40533 -11.70093,0.76892 -23.71211,0.80796 -46.68356,0.15177 -56.6617,5.23096 -92.36779,47.01815 -6.63453,7.76444 -14.95246,16.93223 -18.48431,20.37285 l -6.42153,6.25568 2.86453,5.38603 c 6.74635,12.68481 32.26063,33.89796 54.42524,45.25038 12.17827,6.23755 17.32941,7.45862 28.72383,6.80896 12.64099,-0.72073 16.91897,-2.09108 21.4908,-6.88403 4.01091,-4.2049 6.36484,-4.75865 10.69961,-2.51706 4.42739,2.2895 6.58233,5.25125 5.87404,8.07331 -1.15106,4.58617 -3.44628,5.91772 -9.12465,5.2936 -2.97075,-0.32652 -6.58621,-0.0474 -8.57662,0.66216 -4.02122,1.43351 -7.71732,5.9082 -6.81736,8.25346 0.34375,0.8958 5.05985,3.77235 10.48023,6.39233 9.62734,4.65345 10.0774,4.7636 19.46385,4.7636 5.28474,0 10.18334,0.37176 10.88575,0.82615 2.4203,1.56565 5.35653,8.6541 4.68804,11.31756 -1.5868,6.32228 -8.67567,7.26223 -14.8583,1.97012 -6.82375,-5.84087 -21.4331,-11.51944 -29.77544,-11.57352 l -2.30308,-0.0149 2.30308,3.12769 c 3.07067,4.17012 13.16751,11.73639 19.68351,14.75025 7.06148,3.26617 10.5985,7.53678 10.19886,12.31415 -0.27484,3.28546 -0.62505,3.679 -3.52383,3.95976 -4.52268,0.43805 -9.05526,-2.22571 -11.31102,-6.64738 -2.93334,-5.7498 -9.06565,-11.94459 -15.71546,-15.87554 -3.30083,-1.95124 -6.36917,-3.54771 -6.81853,-3.54771 -0.44938,0 -0.81704,2.41113 -0.81704,5.35807 0,5.45384 -0.027,5.3963 8.32844,17.78715 1.76494,2.61737 2.31095,7.61277 1.15993,10.61227 -0.39864,1.03882 -1.85878,1.59785 -4.17353,1.59785 -2.86405,0 -4.43484,-0.87447 -8.03171,-4.47134 l -4.47135,-4.47135 0.65538,-5.88271 c 0.58852,-5.28271 0.3486,-6.44941 -2.35216,-11.43857 -10.5634,-19.51392 -12.54661,-22.89351 -14.288,-24.34817 -1.45871,-1.21851 -5.14692,-1.767 -14.88936,-2.21426 -27.53955,-1.26432 -46.18861,-9.40289 -65.57839,-28.61883 -7.44884,-7.38205 -8.98679,-8.45835 -12.08631,-8.45835 -8.4537,0 -15.98216,6.99934 -24.60706,22.87762 -16.09267,29.62632 -20.81743,36.44685 -31.50677,45.48235 -15.87663,13.42021 -44.23657,24.46884 -104.30105,40.6342 -8.25962,2.22294 -15.13354,4.17812 -15.27537,4.34485 -0.14181,0.16673 0.1715,3.71241 0.69625,7.87929 3.55527,28.23086 -12.26704,60.872 -38.50814,79.44162 -3.63374,2.57142 -4.08035,3.34192 -4.09958,7.07255 -0.0293,5.67772 3.36116,16.24796 6.90314,21.52184 1.59922,2.38118 5.0665,5.6731 7.70508,7.31539 4.74303,2.95214 4.79004,3.03381 4.14709,7.20437 -1.27209,8.25156 -6.75503,11.96592 -11.72399,7.94231 -1.96082,-1.58778 -2.40181,-2.92596 -2.47207,-7.50155 -0.0507,-3.30421 -0.69149,-6.30283 -1.57556,-7.37334 -1.44349,-1.74794 -9.90783,-6.0294 -10.5737,-5.34843 -1.0176,1.04066 -4.61221,13.57477 -5.51654,19.23571 -1.11488,6.9788 -0.64796,11.65631 1.6125,16.15387 2.04586,4.07059 1.72536,5.46044 -2.28211,9.89624 -3.77429,4.17768 -7.83775,5.23613 -11.61928,3.02659 z m 63.0345,-204.4247 c 5.75908,-2.46414 9.08724,-6.97918 9.56902,-12.9815 0.53756,-6.69714 -2.24573,-11.33039 -8.852,-14.7356 -11.78186,-6.07299 -26.576,2.99002 -24.92871,15.27152 1.39681,10.414 13.91764,16.85011 24.21169,12.44558 z M 104.1155,394.91574 c 6.90285,-2.61541 9.95874,-9.13968 6.97946,-14.90096 -2.25798,-4.36646 -5.41276,-6.24496 -10.48787,-6.24496 -8.04286,0 -12.2776,3.84779 -12.31327,11.18814 -0.0252,5.17756 2.47631,8.43399 7.6742,9.9903 4.02041,1.20376 4.89379,1.20027 8.14748,-0.0325 z m 171.63909,-14.98947 c 7.96682,-3.6181 11.15623,-11.70949 7.69756,-19.52838 -4.75892,-10.75834 -20.05476,-13.02481 -28.57504,-4.23411 -2.71411,2.80026 -3.37626,4.38475 -3.75849,8.99401 -0.38907,4.69168 -0.0768,6.16554 1.9345,9.12954 4.74409,6.99131 14.42736,9.39659 22.70147,5.63894 z M 110.68726,360.75169 c 5.13929,-5.75186 3.28926,-13.91444 -3.82765,-16.88807 -6.53363,-2.72992 -12.00799,-1.25178 -15.61199,4.21543 -2.35402,3.57099 -2.48025,6.6141 -0.43818,10.56304 2.22658,4.30573 6.12843,6.14462 12.04914,5.6786 4.05493,-0.31917 5.52292,-0.98841 7.82868,-3.569 z m 205.47343,-5.06908 c 7.96683,-3.6181 11.15623,-11.70949 7.69756,-19.52838 -4.75892,-10.75834 -20.05476,-13.02481 -28.57503,-4.23412 -2.71412,2.80027 -3.37627,4.38476 -3.7585,8.99402 -0.38907,4.69168 -0.0768,6.16554 1.9345,9.12953 4.74409,6.99132 14.42737,9.3966 22.70147,5.63895 z m 39.39595,-27.27412 c 7.96682,-3.6181 11.15623,-11.70949 7.69756,-19.52838 -4.75892,-10.75834 -20.05476,-13.02481 -28.57504,-4.23411 -2.71411,2.80026 -3.37626,4.38475 -3.75849,8.99401 -0.38907,4.69168 -0.0768,6.16554 1.9345,9.12954 4.74409,6.99131 14.42737,9.39659 22.70147,5.63894 z m 31.31473,-29.29442 c 7.96682,-3.61811 11.15623,-11.70949 7.69756,-19.52838 -4.75892,-10.75834 -20.05476,-13.02481 -28.57504,-4.23412 -2.71411,2.80027 -3.37626,4.38476 -3.75849,8.99402 -0.38907,4.69168 -0.0768,6.16553 1.9345,9.12953 4.74409,6.99132 14.42736,9.39659 22.70147,5.63895 z m 33.33504,-31.31473 c 7.96682,-3.61811 11.15622,-11.70949 7.69755,-19.52838 -4.75892,-10.75834 -20.05476,-13.02481 -28.57503,-4.23412 -2.71412,2.80027 -3.37627,4.38476 -3.7585,8.99402 -0.38907,4.69168 -0.0768,6.16553 1.93451,9.12953 4.74409,6.99132 14.42736,9.39659 22.70147,5.63895 z"
       style="fill:url(#linearGradient4467);fill-opacity:1;stroke:#000000;stroke-width:0.209858;stroke-miterlimit:4;stroke-dasharray:none;stroke-opacity:1" />
  </g>
</svg>
