<?xml version="1.0" encoding="UTF-8" standalone="no"?>
<!-- Created with Inkscape (http://www.inkscape.org/) -->

<svg
   xmlns:dc="http://purl.org/dc/elements/1.1/"
   xmlns:cc="http://creativecommons.org/ns#"
   xmlns:rdf="http://www.w3.org/1999/02/22-rdf-syntax-ns#"
   xmlns:svg="http://www.w3.org/2000/svg"
   xmlns="http://www.w3.org/2000/svg"
   xmlns:xlink="http://www.w3.org/1999/xlink"
   xmlns:sodipodi="http://sodipodi.sourceforge.net/DTD/sodipodi-0.dtd"
   xmlns:inkscape="http://www.inkscape.org/namespaces/inkscape"
   width="210mm"
   height="297mm"
   viewBox="0 0 744.09448819 1052.3622047"
   id="svg2"
   version="1.1"
   inkscape:version="0.91 r13725"
   sodipodi:docname="drawing.svg">
  <defs
     id="defs4">
    <linearGradient
       inkscape:collect="always"
       id="linearGradient4461">
      <stop
         style="stop-color:#00ff00;stop-opacity:1;"
         offset="0"
         id="stop4463" />
      <stop
         style="stop-color:#008000;stop-opacity:1"
         offset="1"
         id="stop4465" />
    </linearGradient>
    <linearGradient
       inkscape:collect="always"
       xlink:href="#linearGradient4461"
       id="linearGradient4467"
       x1="71.428574"
       y1="372.36218"
       x2="538.57141"
       y2="202.3622"
       gradientUnits="userSpaceOnUse" />
  </defs>
  <sodipodi:namedview
     id="base"
     pagecolor="#ffffff"
     bordercolor="#666666"
     borderopacity="1.0"
     inkscape:pageopacity="0.0"
     inkscape:pageshadow="2"
     inkscape:zoom="0.7"
     inkscape:cx="1224.6168"
     inkscape:cy="477.51539"
     inkscape:document-units="px"
     inkscape:current-layer="layer1"
     showgrid="false"
     inkscape:window-width="1920"
     inkscape:window-height="1018"
     inkscape:window-x="-8"
     inkscape:window-y="-8"
     inkscape:window-maximized="1" />
  <metadata
     id="metadata7">
    <rdf:RDF>
      <cc:Work
         rdf:about="">
        <dc:format>image/svg+xml</dc:format>
        <dc:type
           rdf:resource="http://purl.org/dc/dcmitype/StillImage" />
        <dc:title></dc:title>
      </cc:Work>
    </rdf:RDF>
  </metadata>
  <g
     inkscape:label="Layer 1"
     inkscape:groupmode="layer"
     id="layer1">
    <path
       style="fill:none;fill-rule:evenodd;stroke:#000000;stroke-width:0.55023527px;stroke-linecap:butt;stroke-linejoin:miter;stroke-opacity:1"
       d="m 375.34766,81.189453 c -0.7621,0.01279 -1.54301,0.125291 -2.33008,0.351563 -3.22518,1.972496 -11.87556,7.040535 -7.85352,14.353515 3.71332,6.751659 0.25421,18.469779 -2.77539,26.152349 -1.31275,1.95129 -2.75981,4.41772 -4.2539,7.30078 -2.85181,-0.77935 -11.83234,-3.99494 -9.09375,-13.28711 2.39547,-8.12796 -6.11878,-10.66587 -9.89258,-9.25782 -4.74126,1.76901 -9.38563,14.94791 -3.79688,16.62891 10.91414,3.28279 12.48067,24.0284 12.66602,32.69336 -5.20047,20.27401 -5.98726,44.442 8.01953,62.27148 5.30622,6.75436 12.49023,15.14063 12.49023,15.14063 0,0 -58.11018,-3.3682 -83.52148,16.44336 -25.49033,19.87319 -44.61618,80.44678 -69.82617,95.14648 -0.36587,-4.02755 -2.66301,-9.89406 -4.3086,-16.63672 -4.72537,-19.36185 -20.36317,-32.7677 -37.08984,-41.45312 -7.26708,-1.50185 -1.96929,-14.72127 -0.52734,-25.72852 0.49409,-2.44949 -0.6775,-15.94936 5.7207,-19.61132 5.80654,-3.32333 3.18399,-18.02511 -3.68164,-20.79297 -5.17917,-2.08796 -10.82359,8.30627 -9.31641,14.43164 2.9596,12.02862 -6.03542,20.209 -6.01172,18.25586 0.0374,-3.08477 -9.07858,-12.25452 -6.37304,-29.14258 0.98754,-6.16425 -6.69659,-15.21196 -11.07813,-12.08594 -3.01305,2.1497 -6.01401,11.22191 -0.86719,16.87305 8.32103,13.06041 8.94141,27.60742 8.94141,27.60742 -3.4166,-2.8171 -14.18021,-11.0695 -18.75,-27.32227 -0.0671,-10.12172 -13.02058,-11.29252 -16.73633,-3.38671 -0.64109,3.72579 -2.52627,13.57267 5.625,15.36523 11.86867,2.61006 21.30078,26.80664 21.30078,26.80664 0,0 -10.62385,8.28152 -16.7539,-1.39062 -4.53613,-7.1572 -12.05525,-2.42481 -13.48242,1.34179 -1.79305,4.73223 5.06106,16.90921 10.00781,13.8125 10.66292,-6.67503 30.01474,9.36907 34.80859,13.59766 7.48496,8.58007 12.28228,18.89373 15.34766,27.95703 6.09687,18.02639 -1.0411,33.27284 -5.00781,32.94336 -16.20265,5.86936 -26.0399,-24.98156 -53.08008,-27.1543 0,0 -54.175592,-6.71594 -74.142581,20.33789 -5.427345,62.29337 97.038831,72.65175 117.402341,54.99805 14.65195,-12.70219 34.73489,10.54901 31.92774,18.31445 -0.78203,3.96731 -3.3209,26.86008 -3.6875,33.73047 -1.98259,37.15549 -28.95779,68.9277 -34.92969,80.45508 -2.51514,2.07245 -10.65975,11.53105 -17.47656,9.75586 -6.47439,-1.68602 -14.88117,10.65536 -11.91016,17.43555 2.24122,5.11472 13.54297,1.63318 16.75,-3.79883 6.29786,-10.66696 18.44941,-10.22311 17.06641,-8.84375 -2.18427,2.17857 -2.08451,15.10941 -15.83008,25.28711 -5.01723,3.71493 -5.85309,15.55637 -0.53516,16.38672 3.657,0.571 12.14781,-3.81441 12.42188,-11.45313 3.18765,-15.15429 12.91992,-25.98633 12.91992,-25.98633 0.47152,4.40305 2.39057,17.83039 -5.71094,32.64258 -7.0314,7.28101 1.40857,17.17841 9.59375,14.12695 3.06409,-2.21445 11.30053,-7.93367 6.72852,-14.91601 -6.65708,-10.16667 3.52344,-34.05664 3.52344,-34.05664 0,0 13.38568,1.51069 11.00195,12.71094 -1.76391,8.28798 6.91976,10.16453 10.57422,8.4707 4.59133,-2.12805 8.21115,-15.62444 2.50976,-16.8711 -11.93478,-2.60963 -19.44164,-30.75203 -15.30078,-33.31445 30.21137,-20.03271 47.8327,-54.51604 40.79297,-89.76758 26.55475,-7.06022 85.23423,-21.28659 112.83789,-39.36523 37.53228,-24.58127 37.12109,-76.4868 66.02735,-73.64844 23.3735,27.75812 49.92434,38.72841 83.34765,37.45117 5.51684,-2.15168 10.50979,9.84484 14.91016,18.38868 0.98876,2.29488 9.64081,12.7271 6.46679,19.38085 -2.88051,6.03847 7.64735,16.62674 14.86719,14.99219 5.44638,-1.23305 4.16463,-12.98917 -0.5625,-17.16601 -9.28276,-8.20227 -6.5459,-20.05063 -5.45312,-18.43164 1.72596,2.557 14.44073,4.9052 21.83398,20.32812 2.69859,5.62946 14.16875,8.68978 15.99024,3.625 1.25258,-3.48292 -1.44759,-12.64893 -8.89649,-14.36328 -14.2775,-5.99724 -23.07226,-17.60156 -23.07226,-17.60156 4.41274,0.37005 17.96077,1.02363 30.97265,11.78125 5.81918,8.28196 17.13327,1.86857 15.68555,-6.7461 -1.59474,-3.42773 -5.6518,-12.59808 -13.37305,-9.42968 -11.24255,4.61333 -32.77539,-9.90235 -32.77539,-9.90235 -0.36965,-6.77396 10.42066,-10.03432 14.5625,-8.39844 7.80456,3.30012 11.29212,-4.87232 10.32031,-8.78124 -1.22095,-4.91103 -13.79094,-11.0188 -16.09375,-5.65626 -5.23989,12.20206 -32.58035,9.14341 -36.95703,8.57227 -27.12398,-9.85441 -63.75168,-36.71399 -70.71484,-56.4082 19.70095,-15.78663 41.27707,-52.44234 66.08203,-64.98438 27.86449,-14.08902 58.87721,-3.43658 77.86328,-9.28711 -60.32942,-34.43186 -115.42407,-24.4274 -167.64062,2.99219 -5.88392,-3.82144 -17.82337,-12.75274 -27.54493,-27.61914 -3.56521,-5.45199 -6.36928,-12.6122 -8.92828,-19.69866 -2.31351,-6.22236 8.69039,-10.69778 17.55914,-16.62361 2.1682,-1.24217 11.55316,-11.01763 18.52344,-8.61718 6.32571,2.17847 15.65615,-9.48033 13.21485,-16.46875 -1.84164,-5.27179 -13.37925,-2.6676 -16.99415,2.50195 -7.09879,10.15156 -19.18019,8.77488 -17.69531,7.50586 2.3452,-2.00431 3.23966,-14.90455 17.72656,-23.99609 5.28782,-3.31847 7.03139,-15.060401 1.79297,-16.296879 -3.60231,-0.850281 -12.40546,2.869768 -13.26562,10.464839 -4.34254,14.8646 -14.87695,24.91602 -14.87695,24.91602 -0.13185,-4.42627 -1.01638,-17.96145 8.19921,-32.107422 6.86034,-6.089331 1.21849,-15.295484 -6.14843,-15.171875 z"
       id="path4181"
       inkscape:connector-curvature="0"
       sodipodi:nodetypes="scsccssscscscsccssscssccccscssscscccscscssssssccccscsssccscccssscssccccsccssccsccsccsssssscccs" />
    <ellipse
       style="fill:#f9f9f9;stroke:#000000;stroke-width:0.14740305;stroke-miterlimit:4;stroke-dasharray:none;stroke-opacity:1"
       id="path4353"
       cx="215.66757"
       cy="382.63107"
       rx="16.697689"
       ry="15.182462" />
    <ellipse
       style="fill:#f9f9f9;stroke:#000000;stroke-width:0.14740305;stroke-miterlimit:4;stroke-dasharray:none;stroke-opacity:1"
       id="path4353-8"
       cx="267.69043"
       cy="366.46863"
       rx="16.697689"
       ry="15.182462" />
    <ellipse
       style="fill:#f9f9f9;stroke:#000000;stroke-width:0.14740305;stroke-miterlimit:4;stroke-dasharray:none;stroke-opacity:1"
       id="path4353-5"
       cx="308.09653"
       cy="342.22495"
       rx="16.697689"
       ry="15.182462" />
    <ellipse
       style="fill:#f9f9f9;stroke:#000000;stroke-width:0.14740305;stroke-miterlimit:4;stroke-dasharray:none;stroke-opacity:1"
       id="path4353-3"
       cx="347.49246"
       cy="314.95084"
       rx="16.697689"
       ry="15.182462" />
    <ellipse
       style="fill:#f9f9f9;stroke:#000000;stroke-width:0.14740305;stroke-miterlimit:4;stroke-dasharray:none;stroke-opacity:1"
       id="path4353-9"
       cx="378.80719"
       cy="285.65643"
       rx="16.697689"
       ry="15.182462" />
    <ellipse
       style="fill:#f9f9f9;stroke:#000000;stroke-width:0.14740305;stroke-miterlimit:4;stroke-dasharray:none;stroke-opacity:1"
       id="path4353-4"
       cx="412.14224"
       cy="254.34169"
       rx="16.697689"
       ry="15.182462" />
    <ellipse
       style="fill:#ffffff;stroke:#000000;stroke-width:0.20774843;stroke-miterlimit:4;stroke-dasharray:none;stroke-opacity:1"
       id="path4394"
       cx="101.52033"
       cy="353.84171"
       rx="11.616755"
       ry="10.606602" />
    <ellipse
       style="fill:#ffffff;stroke:#000000;stroke-width:0.20774843;stroke-miterlimit:4;stroke-dasharray:none;stroke-opacity:1"
       id="path4394-9"
       cx="100.0051"
       cy="384.65137"
       rx="11.616755"
       ry="10.606602" />
    <ellipse
       style="fill:#000000;stroke:#000000;stroke-width:0.20774843;stroke-miterlimit:4;stroke-dasharray:none;stroke-opacity:1"
       id="path4411"
       cx="100.51019"
       cy="350.30618"
       rx="8.586297"
       ry="7.0710678" />
    <ellipse
       style="fill:#000000;stroke:#000000;stroke-width:0.20774843;stroke-miterlimit:4;stroke-dasharray:none;stroke-opacity:1"
       id="path4411-4"
       cx="96.97464"
       cy="386.67169"
       rx="8.586297"
       ry="7.0710678" />
    <path
       style="fill:url(#linearGradient4467);stroke:#000000;stroke-width:0.2098576;stroke-miterlimit:4;stroke-dasharray:none;stroke-opacity:1;fill-opacity:1"
       d="m 159.80935,601.19385 c -0.89942,-0.52552 -2.17161,-2.25024 -2.82708,-3.83269 -1.05775,-2.55363 -0.79867,-3.66395 2.30371,-9.87293 1.92251,-3.84765 3.99019,-9.40459 4.59484,-12.34875 1.3535,-6.5905 1.44633,-19.39572 0.14061,-19.39572 -2.65048,0 -12.08807,17.42866 -13.6749,25.25382 -0.96621,4.76465 -3.01745,7.78657 -6.88698,10.14597 -3.90396,2.38039 -4.17733,2.39757 -6.18642,0.38847 -3.39053,-3.39053 -1.11354,-11.60686 4.28118,-15.44824 4.0021,-2.84974 7.90609,-8.79354 11.37574,-17.31945 1.62731,-3.99878 2.95875,-7.45069 2.95875,-7.67092 0,-0.22023 -1.44747,-0.40041 -3.21661,-0.40041 -4.85377,0 -11.38115,3.63691 -14.43415,8.04238 -3.18798,4.60028 -8.35176,7.3621 -12.9366,6.91912 -2.87974,-0.27825 -3.29007,-0.7045 -3.57822,-3.71707 -0.72612,-7.59148 5.05683,-14.27489 12.35162,-14.27489 3.07535,0 5.5851,-0.85453 8.83809,-3.00921 6.00242,-3.97584 6.61437,-4.71167 15.61171,-18.77208 20.09624,-31.40497 25.24447,-45.31664 28.2003,-76.2035 0.87729,-9.16714 2.03089,-19.48642 2.56358,-22.93174 1.27789,-8.26525 -0.52445,-12.81495 -7.66008,-19.33651 -8.65967,-7.91445 -17.14789,-9.15971 -24.45349,-3.58746 -6.60801,5.04018 -13.61112,6.77086 -29.35164,7.25372 -38.230897,1.17275 -71.213321,-13.52465 -82.754422,-36.87648 -3.232738,-6.54101 -3.779559,-8.6987 -4.145795,-16.35884 l -0.42188,-8.82399 4.913324,-4.20179 c 11.080095,-9.47553 25.963241,-14.09917 48.349883,-15.02051 24.18402,-0.99531 32.25825,1.44017 46.95873,14.16445 12.87575,11.14485 15.87371,13.05265 21.33597,13.57751 4.32295,0.41538 5.16836,0.14615 7.79769,-2.48316 4.99491,-4.99492 6.55597,-16.84862 3.70705,-28.14904 -2.27658,-9.03016 -10.90722,-25.82013 -15.89467,-30.92132 -11.55726,-11.82082 -27.55042,-18.4935 -35.56886,-14.84005 -2.15694,0.98277 -2.90998,0.86168 -4.69664,-0.75523 -5.37349,-4.86293 -6.38523,-11.26257 -2.28984,-14.48401 3.77812,-2.97187 5.48846,-2.63771 9.9653,1.94699 3.25164,3.32998 4.62895,4.04061 7.83132,4.04061 3.49739,0 9.84635,-2.31272 9.84635,-3.58669 0,-0.2774 -1.5501,-3.58244 -3.44465,-7.34453 -5.0786,-10.08474 -10.65336,-16.64236 -16.40332,-19.29529 -6.19651,-2.85897 -7.42615,-4.47918 -7.42615,-9.78497 0,-5.72088 0.7157,-7.26154 4.21351,-9.07033 5.13352,-2.65465 10.27604,0.25579 11.43002,6.4689 1.14097,6.1431 7.51333,17.05821 13.54151,23.19506 l 5.66522,5.76734 0.30842,-3.16735 c 0.48054,-4.93503 -2.59148,-15.28813 -6.94731,-23.41327 -4.1094,-7.66548 -4.78311,-11.42228 -2.82073,-15.72924 1.51477,-3.32457 3.66172,-4.02959 6.53596,-2.14632 3.9047,2.55846 4.90027,5.60478 5.45462,16.69043 0.46174,9.23392 0.9551,11.50765 3.81212,17.56886 l 3.28174,6.96225 2.14554,-1.91149 c 3.49952,-3.11777 4.95098,-7.925 4.79684,-15.88709 -0.14573,-7.5271 1.24653,-11.99243 4.60932,-14.78329 4.02085,-3.33702 9.63314,3.65872 9.63314,12.00773 0,3.10174 -0.66498,4.6691 -2.90663,6.85097 -3.31937,3.23086 -5.17459,8.0321 -5.17459,13.39161 0,2.03227 -0.91708,8.66932 -2.03796,14.74902 -1.12087,6.07969 -1.77677,12.25777 -1.45755,13.72908 0.44195,2.03693 2.50131,3.79121 8.63266,7.35377 9.99636,5.80829 21.49659,16.5984 26.24407,24.62357 2.1764,3.67898 4.9345,10.90696 6.98014,18.29237 1.86009,6.71552 3.8023,12.21003 4.31602,12.21003 2.08536,0 14.26268,-12.98985 19.79773,-21.11873 3.25097,-4.77443 11.04122,-17.54486 17.31169,-28.37874 22.61757,-39.07777 30.34255,-47.51258 49.66993,-54.23398 13.3362,-4.63787 25.22894,-6.4446 46.56235,-7.07369 10.97278,-0.32357 19.94284,-0.86699 19.93348,-1.20759 -0.009,-0.3406 -3.42367,-4.84909 -7.58734,-10.01885 -8.57714,-10.64971 -11.7541,-16.3439 -14.0395,-25.16354 -2.06505,-7.96927 -2.05974,-24.85988 0.0112,-35.77712 3.10227,-16.35384 -1.21078,-33.40854 -9.82389,-38.84576 -3.96484,-2.5029 -4.11744,-2.78908 -3.58876,-6.73065 1.12659,-8.39932 7.6606,-12.41876 12.64268,-7.77724 2.0538,1.91341 2.24516,2.76918 1.66228,7.43432 -0.5893,4.71666 -0.38189,5.60097 1.96901,8.39485 1.44523,1.71757 3.93958,3.58017 5.543,4.13913 2.85221,0.99428 2.98249,0.88157 6.01969,-5.20776 5.25471,-10.53526 6.09634,-17.68768 3.65115,-31.028672 -0.6009,-3.278595 -0.2984,-3.916515 3.47284,-7.323607 4.81274,-4.348023 7.92836,-4.708463 11.81343,-1.366671 3.6369,3.128326 3.54571,7.006045 -0.3007,12.786777 -4.21681,6.337403 -6.02005,11.444563 -7.41905,21.012393 -1.35299,9.25314 -0.88158,12.31772 1.58046,10.27441 3.33165,-2.76503 11.49101,-16.35273 13.56843,-22.5954 2.64625,-7.951982 6.6951,-11.994713 11.54025,-11.522803 3.0957,0.301516 3.1412,0.38598 3.09178,5.739933 -0.0439,4.75841 -0.42067,5.73939 -3.03046,7.89119 -8.08303,6.66451 -11.8216,11.1015 -15.10372,17.92533 -1.94366,4.04105 -3.53393,7.64058 -3.53393,7.99897 0,0.35839 1.83639,0.65162 4.08085,0.65162 5.06436,0 11.24319,-3.05639 13.99693,-6.92366 4.26351,-5.98755 14.33444,-8.32874 16.39292,-3.81087 0.86644,1.90162 0.67258,3.34643 -0.93732,6.98587 -2.62984,5.94521 -6.07639,8.15962 -12.86198,8.26383 -4.52369,0.0695 -6.23586,0.70113 -11.10501,4.09693 -3.16621,2.20815 -9.44989,6.51494 -13.96377,9.57065 -11.3872,7.70869 -11.75931,8.59419 -7.85297,18.68782 5.44374,14.06614 16.00983,27.89131 28.48135,37.26631 l 5.93519,4.46158 13.2332,-6.03846 c 52.83539,-24.10936 95.6627,-25.0272 142.74584,-3.05919 7.64583,3.56738 9.52025,4.81565 8.08122,5.38167 -1.03049,0.40533 -11.70093,0.76892 -23.71211,0.80796 -46.68356,0.15177 -56.6617,5.23096 -92.36779,47.01815 -6.63453,7.76444 -14.95246,16.93223 -18.48431,20.37285 l -6.42153,6.25568 2.86453,5.38603 c 6.74635,12.68481 32.26063,33.89796 54.42524,45.25038 12.17827,6.23755 17.32941,7.45862 28.72383,6.80896 12.64099,-0.72073 16.91897,-2.09108 21.4908,-6.88403 4.01091,-4.2049 6.36484,-4.75865 10.69961,-2.51706 4.42739,2.2895 6.58233,5.25125 5.87404,8.07331 -1.15106,4.58617 -3.44628,5.91772 -9.12465,5.2936 -2.97075,-0.32652 -6.58621,-0.0474 -8.57662,0.66216 -4.02122,1.43351 -7.71732,5.9082 -6.81736,8.25346 0.34375,0.8958 5.05985,3.77235 10.48023,6.39233 9.62734,4.65345 10.0774,4.7636 19.46385,4.7636 5.28474,0 10.18334,0.37176 10.88575,0.82615 2.4203,1.56565 5.35653,8.6541 4.68804,11.31756 -1.5868,6.32228 -8.67567,7.26223 -14.8583,1.97012 -6.82375,-5.84087 -21.4331,-11.51944 -29.77544,-11.57352 l -2.30308,-0.0149 2.30308,3.12769 c 3.07067,4.17012 13.16751,11.73639 19.68351,14.75025 7.06148,3.26617 10.5985,7.53678 10.19886,12.31415 -0.27484,3.28546 -0.62505,3.679 -3.52383,3.95976 -4.52268,0.43805 -9.05526,-2.22571 -11.31102,-6.64738 -2.93334,-5.7498 -9.06565,-11.94459 -15.71546,-15.87554 -3.30083,-1.95124 -6.36917,-3.54771 -6.81853,-3.54771 -0.44938,0 -0.81704,2.41113 -0.81704,5.35807 0,5.45384 -0.027,5.3963 8.32844,17.78715 1.76494,2.61737 2.31095,7.61277 1.15993,10.61227 -0.39864,1.03882 -1.85878,1.59785 -4.17353,1.59785 -2.86405,0 -4.43484,-0.87447 -8.03171,-4.47134 l -4.47135,-4.47135 0.65538,-5.88271 c 0.58852,-5.28271 0.3486,-6.44941 -2.35216,-11.43857 -10.5634,-19.51392 -12.54661,-22.89351 -14.288,-24.34817 -1.45871,-1.21851 -5.14692,-1.767 -14.88936,-2.21426 -27.53955,-1.26432 -46.18861,-9.40289 -65.57839,-28.61883 -7.44884,-7.38205 -8.98679,-8.45835 -12.08631,-8.45835 -8.4537,0 -15.98216,6.99934 -24.60706,22.87762 -16.09267,29.62632 -20.81743,36.44685 -31.50677,45.48235 -15.87663,13.42021 -44.23657,24.46884 -104.30105,40.6342 -8.25962,2.22294 -15.13354,4.17812 -15.27537,4.34485 -0.14181,0.16673 0.1715,3.71241 0.69625,7.87929 3.55527,28.23086 -12.26704,60.872 -38.50814,79.44162 -3.63374,2.57142 -4.08035,3.34192 -4.09958,7.07255 -0.0293,5.67772 3.36116,16.24796 6.90314,21.52184 1.59922,2.38118 5.0665,5.6731 7.70508,7.31539 4.74303,2.95214 4.79004,3.03381 4.14709,7.20437 -1.27209,8.25156 -6.75503,11.96592 -11.72399,7.94231 -1.96082,-1.58778 -2.40181,-2.92596 -2.47207,-7.50155 -0.0507,-3.30421 -0.69149,-6.30283 -1.57556,-7.37334 -1.44349,-1.74794 -9.90783,-6.0294 -10.5737,-5.34843 -1.0176,1.04066 -4.61221,13.57477 -5.51654,19.23571 -1.11488,6.9788 -0.64796,11.65631 1.6125,16.15387 2.04586,4.07059 1.72536,5.46044 -2.28211,9.89624 -3.77429,4.17768 -7.83775,5.23613 -11.61928,3.02659 z m 63.0345,-204.4247 c 5.75908,-2.46414 9.08724,-6.97918 9.56902,-12.9815 0.53756,-6.69714 -2.24573,-11.33039 -8.852,-14.7356 -11.78186,-6.07299 -26.576,2.99002 -24.92871,15.27152 1.39681,10.414 13.91764,16.85011 24.21169,12.44558 z m -118.79113,-1.70693 c 6.90285,-2.61541 9.95874,-9.13968 6.97946,-14.90096 -2.25798,-4.36646 -5.41276,-6.24496 -10.48787,-6.24496 -8.042861,0 -12.277596,3.84779 -12.313267,11.18814 -0.02516,5.17756 2.476312,8.43399 7.674196,9.9903 4.02041,1.20376 4.893791,1.20027 8.147481,-0.0325 z m 171.63909,-14.98947 c 7.96682,-3.6181 11.15623,-11.70949 7.69756,-19.52838 -4.75892,-10.75834 -20.05476,-13.02481 -28.57504,-4.23411 -2.71411,2.80026 -3.37626,4.38475 -3.75849,8.99401 -0.38907,4.69168 -0.0768,6.16554 1.9345,9.12954 4.74409,6.99131 14.42736,9.39659 22.70147,5.63894 z M 110.62448,360.89817 c 5.13929,-5.75186 3.28926,-13.91444 -3.82765,-16.88807 -6.53363,-2.72992 -12.007984,-1.25178 -15.611991,4.21543 -2.354017,3.57099 -2.480252,6.6141 -0.438178,10.56304 2.226576,4.30573 6.128435,6.14462 12.049139,5.6786 4.05493,-0.31917 5.52292,-0.98841 7.82868,-3.569 z m 205.47343,-5.06908 c 7.96683,-3.6181 11.15623,-11.70949 7.69756,-19.52838 -4.75892,-10.75834 -20.05476,-13.02481 -28.57503,-4.23412 -2.71412,2.80027 -3.37627,4.38476 -3.7585,8.99402 -0.38907,4.69168 -0.0768,6.16554 1.9345,9.12953 4.74409,6.99132 14.42737,9.3966 22.70147,5.63895 z m 39.39595,-27.27412 c 7.96682,-3.6181 11.15623,-11.70949 7.69756,-19.52838 -4.75892,-10.75834 -20.05476,-13.02481 -28.57504,-4.23411 -2.71411,2.80026 -3.37626,4.38475 -3.75849,8.99401 -0.38907,4.69168 -0.0768,6.16554 1.9345,9.12954 4.74409,6.99131 14.42737,9.39659 22.70147,5.63894 z m 31.31473,-29.29442 c 7.96682,-3.61811 11.15623,-11.70949 7.69756,-19.52838 -4.75892,-10.75834 -20.05476,-13.02481 -28.57504,-4.23412 -2.71411,2.80027 -3.37626,4.38476 -3.75849,8.99402 -0.38907,4.69168 -0.0768,6.16553 1.9345,9.12953 4.74409,6.99132 14.42736,9.39659 22.70147,5.63895 z m 33.33504,-31.31473 c 7.96682,-3.61811 11.15622,-11.70949 7.69755,-19.52838 -4.75892,-10.75834 -20.05476,-13.02481 -28.57503,-4.23412 -2.71412,2.80027 -3.37627,4.38476 -3.7585,8.99402 -0.38907,4.69168 -0.0768,6.16553 1.93451,9.12953 4.74409,6.99132 14.42736,9.39659 22.70147,5.63895 z"
       id="path4430"
       inkscape:connector-curvature="0"
       inkscape:transform-center-x="158.57135"
       inkscape:transform-center-y="-137.14265" />
  </g>
</svg>
